SplineFontDB: 3.2
FontName: Super-Mario-Bros.-3
FullName: Super Mario Bros. 3 Regular
FamilyName: Super Mario Bros. 3
Weight: Book
Copyright: Copyright David Fens 2013
Version: 1.0
ItalicAngle: 0
UnderlinePosition: 77
UnderlineWidth: 51
Ascent: 819
Descent: 205
InvalidEm: 0
sfntRevision: 0x00010000
LayerCount: 2
Layer: 0 1 "Back" 1
Layer: 1 1 "Fore" 0
XUID: [1021 180 1126196527 7983253]
StyleMap: 0x0040
FSType: 4
OS2Version: 2
OS2_WeightWidthSlopeOnly: 0
OS2_UseTypoMetrics: 0
CreationTime: 1379846969
ModificationTime: 1667259533
PfmFamily: 81
TTFWeight: 400
TTFWidth: 5
LineGap: 0
VLineGap: 0
Panose: 0 0 4 0 0 0 0 0 0 0
OS2TypoAscent: 768
OS2TypoAOffset: 0
OS2TypoDescent: 0
OS2TypoDOffset: 0
OS2TypoLinegap: 0
OS2WinAscent: 1024
OS2WinAOffset: 0
OS2WinDescent: 128
OS2WinDOffset: 0
HheadAscent: 1024
HheadAOffset: 0
HheadDescent: -128
HheadDOffset: 0
OS2SubXSize: 512
OS2SubYSize: 512
OS2SubXOff: 0
OS2SubYOff: 0
OS2SupXSize: 512
OS2SupYSize: 512
OS2SupXOff: 0
OS2SupYOff: 512
OS2StrikeYSize: 51
OS2StrikeYPos: 204
OS2CapHeight: 1024
OS2XHeight: 768
OS2Vendor: 'FSTR'
OS2CodePages: 00000001.00000000
OS2UnicodeRanges: 00000003.00000000.00000000.00000000
DEI: 91125
ShortTable: maxp 16
  1
  0
  68
  72
  14
  0
  0
  2
  0
  0
  0
  0
  0
  0
  0
  0
EndShort
LangName: 1033 "" "" "Regular" "FontStruct Super Mario Bros. 3" "" "Version 1.0" "" "FontStruct is a trademark of FSI FontShop International GmbH" "http://fontstruct.com" "David Fens" "+IBoAxAD6-Super Mario Bros. 3+IBoAxAD5 was built with FontStruct+AAoA" "http://www.fontshop.com" "http://fontstruct.com/fontstructions/show/876059" "FontStruct Non-Commercial License" "" "" "" "" "" "Five big quacking zephyrs jolt my wax bed"
Encoding: UnicodeBmp
UnicodeInterp: none
NameList: AGL For New Fonts
DisplaySize: -48
AntiAlias: 1
FitToEm: 0
WinInfo: 32 16 4
Grid
-1024 400.999969482 m 0
 2048 400.999969482 l 1024
EndSplineSet
BeginChars: 65539 71

StartChar: .notdef
Encoding: 65536 -1 0
Width: 320
GlyphClass: 1
Flags: W
LayerCount: 2
Fore
SplineSet
384 109 m 1,0,-1
 384 231 l 1,1,-1
 261 231 l 1,2,-1
 261 109 l 1,3,-1
 384 109 l 1,0,-1
506 251 m 1,4,-1
 506 374 l 1,5,-1
 261 374 l 1,6,-1
 261 251 l 1,7,-1
 506 251 l 1,4,-1
384 393 m 1,8,-1
 384 516 l 1,9,-1
 261 516 l 1,10,-1
 261 393 l 1,11,-1
 384 393 l 1,8,-1
506 536 m 1,12,-1
 506 658 l 1,13,-1
 384 658 l 2,14,15
 333 658 333 658 297 622 c 256,16,17
 261 586 261 586 261 536 c 1,18,-1
 506 536 l 1,12,-1
0 0 m 1,19,-1
 0 768 l 1,20,-1
 768 768 l 1,21,-1
 768 0 l 1,22,-1
 0 0 l 1,19,-1
EndSplineSet
Validated: 1
EndChar

StartChar: dollar
Encoding: 36 36 4
Width: 1088
GlyphClass: 1
Flags: W
LayerCount: 2
Fore
SplineSet
0 256 m 1,0,-1
 0 384 l 1,1,-1
 128 384 l 1,2,-1
 128 256 l 1,3,-1
 0 256 l 1,0,-1
512 256 m 1,4,-1
 512 512 l 1,5,-1
 384 512 l 1,6,-1
 384 256 l 1,7,-1
 512 256 l 1,4,-1
768 256 m 1,8,-1
 768 512 l 1,9,-1
 896 512 l 1,10,-1
 896 256 l 1,11,-1
 768 256 l 1,8,-1
512 640 m 1,12,-1
 512 768 l 1,13,-1
 384 768 l 1,14,-1
 384 640 l 1,15,-1
 512 640 l 1,12,-1
256 0 m 1,16,-1
 256 128 l 1,17,-1
 128 128 l 1,18,-1
 128 256 l 1,19,-1
 256 256 l 1,20,-1
 256 512 l 1,21,-1
 0 512 l 1,22,-1
 0 768 l 1,23,-1
 128 768 l 1,24,-1
 128 640 l 1,25,-1
 256 640 l 1,26,-1
 256 768 l 1,27,-1
 128 768 l 1,28,-1
 128 896 l 1,29,-1
 256 896 l 1,30,-1
 256 1024 l 1,31,-1
 384 1024 l 1,32,-1
 384 896 l 1,33,-1
 512 896 l 1,34,-1
 512 1024 l 1,35,-1
 640 1024 l 1,36,-1
 640 896 l 1,37,-1
 896 896 l 1,38,-1
 896 768 l 1,39,-1
 640 768 l 1,40,-1
 640 640 l 1,41,-1
 768 640 l 1,42,-1
 768 512 l 1,43,-1
 640 512 l 1,44,-1
 640 256 l 1,45,-1
 768 256 l 1,46,-1
 768 128 l 1,47,-1
 640 128 l 1,48,-1
 640 0 l 1,49,-1
 512 0 l 1,50,-1
 512 128 l 1,51,-1
 384 128 l 1,52,-1
 384 0 l 1,53,-1
 256 0 l 1,16,-1
EndSplineSet
Validated: 5
EndChar

StartChar: zero
Encoding: 48 48 5
Width: 960
GlyphClass: 1
Flags: W
LayerCount: 2
Fore
SplineSet
512 128 m 1,0,-1
 512 512 l 1,1,-1
 256 512 l 1,2,-1
 256 128 l 1,3,-1
 512 128 l 1,0,-1
128 0 m 1,4,-1
 128 128 l 1,5,-1
 0 128 l 1,6,-1
 0 512 l 1,7,-1
 128 512 l 1,8,-1
 128 640 l 1,9,-1
 640 640 l 1,10,-1
 640 512 l 1,11,-1
 768 512 l 1,12,-1
 768 128 l 1,13,-1
 640 128 l 1,14,-1
 640 0 l 1,15,-1
 128 0 l 1,4,-1
EndSplineSet
Validated: 1
EndChar

StartChar: one
Encoding: 49 49 6
Width: 704
GlyphClass: 1
Flags: W
LayerCount: 2
Fore
SplineSet
0 0 m 1,0,-1
 0 128 l 1,1,-1
 128 128 l 1,2,-1
 128 512 l 1,3,-1
 0 512 l 1,4,-1
 0 640 l 1,5,-1
 384 640 l 1,6,-1
 384 128 l 1,7,-1
 512 128 l 1,8,-1
 512 0 l 1,9,-1
 0 0 l 1,0,-1
EndSplineSet
Validated: 1
EndChar

StartChar: two
Encoding: 50 50 7
Width: 960
GlyphClass: 1
Flags: W
LayerCount: 2
Fore
SplineSet
0 0 m 1,0,-1
 0 256 l 1,1,-1
 128 256 l 1,2,-1
 128 384 l 1,3,-1
 512 384 l 1,4,-1
 512 512 l 1,5,-1
 0 512 l 1,6,-1
 0 640 l 1,7,-1
 640 640 l 1,8,-1
 640 512 l 1,9,-1
 768 512 l 1,10,-1
 768 384 l 1,11,-1
 640 384 l 1,12,-1
 640 256 l 1,13,-1
 256 256 l 1,14,-1
 256 128 l 1,15,-1
 768 128 l 1,16,-1
 768 0 l 1,17,-1
 0 0 l 1,0,-1
EndSplineSet
Validated: 1
EndChar

StartChar: three
Encoding: 51 51 8
Width: 960
GlyphClass: 1
Flags: W
LayerCount: 2
Fore
SplineSet
0 0 m 1,0,-1
 0 128 l 1,1,-1
 512 128 l 1,2,-1
 512 256 l 1,3,-1
 128 256 l 1,4,-1
 128 384 l 1,5,-1
 512 384 l 1,6,-1
 512 512 l 1,7,-1
 0 512 l 1,8,-1
 0 640 l 1,9,-1
 640 640 l 1,10,-1
 640 512 l 1,11,-1
 768 512 l 1,12,-1
 768 384 l 1,13,-1
 640 384 l 1,14,-1
 640 256 l 1,15,-1
 768 256 l 1,16,-1
 768 128 l 1,17,-1
 640 128 l 1,18,-1
 640 0 l 1,19,-1
 0 0 l 1,0,-1
EndSplineSet
Validated: 1
EndChar

StartChar: four
Encoding: 52 52 9
Width: 960
GlyphClass: 1
Flags: W
LayerCount: 2
Fore
SplineSet
512 0 m 1,0,-1
 512 128 l 1,1,-1
 0 128 l 1,2,-1
 0 640 l 1,3,-1
 256 640 l 1,4,-1
 256 256 l 1,5,-1
 512 256 l 1,6,-1
 512 640 l 1,7,-1
 640 640 l 1,8,-1
 640 256 l 1,9,-1
 768 256 l 1,10,-1
 768 128 l 1,11,-1
 640 128 l 1,12,-1
 640 0 l 1,13,-1
 512 0 l 1,0,-1
EndSplineSet
Validated: 1
EndChar

StartChar: five
Encoding: 53 53 10
Width: 960
GlyphClass: 1
Flags: W
LayerCount: 2
Fore
SplineSet
0 0 m 1,0,-1
 0 128 l 1,1,-1
 512 128 l 1,2,-1
 512 256 l 1,3,-1
 0 256 l 1,4,-1
 0 640 l 1,5,-1
 640 640 l 1,6,-1
 640 512 l 1,7,-1
 256 512 l 1,8,-1
 256 384 l 1,9,-1
 640 384 l 1,10,-1
 640 256 l 1,11,-1
 768 256 l 1,12,-1
 768 128 l 1,13,-1
 640 128 l 1,14,-1
 640 0 l 1,15,-1
 0 0 l 1,0,-1
EndSplineSet
Validated: 1
EndChar

StartChar: six
Encoding: 54 54 11
Width: 960
GlyphClass: 1
Flags: W
LayerCount: 2
Fore
SplineSet
512 128 m 1,0,-1
 512 256 l 1,1,-1
 256 256 l 1,2,-1
 256 128 l 1,3,-1
 512 128 l 1,0,-1
128 0 m 1,4,-1
 128 128 l 1,5,-1
 0 128 l 1,6,-1
 0 512 l 1,7,-1
 128 512 l 1,8,-1
 128 640 l 1,9,-1
 640 640 l 1,10,-1
 640 512 l 1,11,-1
 256 512 l 1,12,-1
 256 384 l 1,13,-1
 640 384 l 1,14,-1
 640 256 l 1,15,-1
 768 256 l 1,16,-1
 768 128 l 1,17,-1
 640 128 l 1,18,-1
 640 0 l 1,19,-1
 128 0 l 1,4,-1
EndSplineSet
Validated: 1
EndChar

StartChar: seven
Encoding: 55 55 12
Width: 960
GlyphClass: 1
Flags: W
LayerCount: 2
Fore
SplineSet
128 0 m 1,0,-1
 128 128 l 1,1,-1
 256 128 l 1,2,-1
 256 256 l 1,3,-1
 384 256 l 1,4,-1
 384 384 l 1,5,-1
 512 384 l 1,6,-1
 512 512 l 1,7,-1
 0 512 l 1,8,-1
 0 640 l 1,9,-1
 768 640 l 1,10,-1
 768 384 l 1,11,-1
 640 384 l 1,12,-1
 640 256 l 1,13,-1
 512 256 l 1,14,-1
 512 128 l 1,15,-1
 384 128 l 1,16,-1
 384 0 l 1,17,-1
 128 0 l 1,0,-1
EndSplineSet
Validated: 1
EndChar

StartChar: eight
Encoding: 56 56 13
Width: 960
GlyphClass: 1
Flags: W
LayerCount: 2
Fore
SplineSet
512 128 m 1,0,-1
 512 256 l 1,1,-1
 256 256 l 1,2,-1
 256 128 l 1,3,-1
 512 128 l 1,0,-1
512 384 m 1,4,-1
 512 512 l 1,5,-1
 256 512 l 1,6,-1
 256 384 l 1,7,-1
 512 384 l 1,4,-1
128 0 m 1,8,-1
 128 128 l 1,9,-1
 0 128 l 1,10,-1
 0 256 l 1,11,-1
 128 256 l 1,12,-1
 128 384 l 1,13,-1
 0 384 l 1,14,-1
 0 512 l 1,15,-1
 128 512 l 1,16,-1
 128 640 l 1,17,-1
 640 640 l 1,18,-1
 640 512 l 1,19,-1
 768 512 l 1,20,-1
 768 384 l 1,21,-1
 640 384 l 1,22,-1
 640 256 l 1,23,-1
 768 256 l 1,24,-1
 768 128 l 1,25,-1
 640 128 l 1,26,-1
 640 0 l 1,27,-1
 128 0 l 1,8,-1
EndSplineSet
Validated: 1
EndChar

StartChar: nine
Encoding: 57 57 14
Width: 960
GlyphClass: 1
Flags: W
LayerCount: 2
Fore
SplineSet
512 384 m 1,0,-1
 512 512 l 1,1,-1
 256 512 l 1,2,-1
 256 384 l 1,3,-1
 512 384 l 1,0,-1
128 0 m 1,4,-1
 128 128 l 1,5,-1
 512 128 l 1,6,-1
 512 256 l 1,7,-1
 128 256 l 1,8,-1
 128 384 l 1,9,-1
 0 384 l 1,10,-1
 0 512 l 1,11,-1
 128 512 l 1,12,-1
 128 640 l 1,13,-1
 640 640 l 5,14,-1
 640 512 l 1,15,-1
 768 512 l 1,16,-1
 768 128 l 1,17,-1
 640 128 l 1,18,-1
 640 0 l 1,19,-1
 128 0 l 1,4,-1
EndSplineSet
Validated: 1
EndChar

StartChar: A
Encoding: 65 65 15
Width: 1216
GlyphClass: 1
Flags: W
LayerCount: 2
Fore
SplineSet
384 384 m 1,0,-1
 384 640 l 1,1,-1
 640 640 l 1,2,-1
 640 384 l 1,3,-1
 384 384 l 1,0,-1
896 0 m 1,4,-1
 896 640 l 1,5,-1
 768 640 l 1,6,-1
 768 768 l 1,7,-1
 256 768 l 1,8,-1
 256 640 l 1,9,-1
 128 640 l 1,10,-1
 128 0 l 1,11,-1
 384 0 l 1,12,-1
 384 256 l 1,13,-1
 640 256 l 1,14,-1
 640 0 l 1,15,-1
 896 0 l 1,4,-1
0 -128 m 1,16,-1
 0 768 l 1,17,-1
 128 768 l 1,18,-1
 128 896 l 1,19,-1
 896 896 l 1,20,-1
 896 768 l 1,21,-1
 1024 768 l 1,22,-1
 1024 -128 l 1,23,-1
 0 -128 l 1,16,-1
EndSplineSet
Validated: 1
EndChar

StartChar: B
Encoding: 66 66 16
Width: 1216
GlyphClass: 1
Flags: W
LayerCount: 2
Fore
SplineSet
384 128 m 1,0,-1
 384 384 l 1,1,-1
 640 384 l 1,2,-1
 640 128 l 1,3,-1
 384 128 l 1,0,-1
384 512 m 1,4,-1
 384 640 l 1,5,-1
 640 640 l 1,6,-1
 640 512 l 1,7,-1
 384 512 l 1,4,-1
768 640 m 1,8,-1
 768 768 l 1,9,-1
 896 768 l 1,10,-1
 896 640 l 1,11,-1
 768 640 l 1,8,-1
0 -128 m 1,12,-1
 0 896 l 1,13,-1
 768 896 l 1,14,-1
 768 768 l 1,15,-1
 128 768 l 1,16,-1
 128 0 l 1,17,-1
 768 0 l 1,18,-1
 768 128 l 1,19,-1
 896 128 l 1,20,-1
 896 384 l 1,21,-1
 768 384 l 1,22,-1
 768 512 l 1,23,-1
 896 512 l 1,24,-1
 896 640 l 1,25,-1
 1024 640 l 1,26,-1
 1024 0 l 1,27,-1
 896 0 l 1,28,-1
 896 -128 l 1,29,-1
 0 -128 l 1,12,-1
EndSplineSet
Validated: 5
EndChar

StartChar: C
Encoding: 67 67 17
Width: 1216
GlyphClass: 1
Flags: W
LayerCount: 2
Fore
SplineSet
128 0 m 1,0,-1
 128 128 l 1,1,-1
 256 128 l 1,2,-1
 256 0 l 1,3,-1
 128 0 l 1,0,-1
256 -128 m 1,4,-1
 256 0 l 1,5,-1
 768 0 l 1,6,-1
 768 128 l 1,7,-1
 896 128 l 1,8,-1
 896 256 l 1,9,-1
 640 256 l 1,10,-1
 640 128 l 1,11,-1
 384 128 l 1,12,-1
 384 640 l 1,13,-1
 640 640 l 1,14,-1
 640 512 l 1,15,-1
 896 512 l 1,16,-1
 896 640 l 1,17,-1
 768 640 l 1,18,-1
 768 768 l 1,19,-1
 256 768 l 1,20,-1
 256 640 l 1,21,-1
 128 640 l 1,22,-1
 128 128 l 1,23,-1
 0 128 l 1,24,-1
 0 768 l 1,25,-1
 128 768 l 1,26,-1
 128 896 l 1,27,-1
 896 896 l 1,28,-1
 896 768 l 1,29,-1
 1024 768 l 1,30,-1
 1024 0 l 1,31,-1
 896 0 l 1,32,-1
 896 -128 l 1,33,-1
 256 -128 l 1,4,-1
EndSplineSet
Validated: 5
EndChar

StartChar: D
Encoding: 68 68 18
Width: 1216
GlyphClass: 1
Flags: W
LayerCount: 2
Fore
SplineSet
384 128 m 1,0,-1
 384 640 l 1,1,-1
 512 640 l 1,2,-1
 512 512 l 1,3,-1
 640 512 l 1,4,-1
 640 128 l 1,5,-1
 384 128 l 1,0,-1
768 0 m 1,6,-1
 768 128 l 1,7,-1
 896 128 l 1,8,-1
 896 512 l 1,9,-1
 768 512 l 1,10,-1
 768 640 l 1,11,-1
 640 640 l 1,12,-1
 640 768 l 1,13,-1
 128 768 l 1,14,-1
 128 0 l 1,15,-1
 768 0 l 1,6,-1
0 -128 m 1,16,-1
 0 896 l 1,17,-1
 768 896 l 1,18,-1
 768 768 l 1,19,-1
 896 768 l 1,20,-1
 896 640 l 1,21,-1
 1024 640 l 1,22,-1
 1024 0 l 1,23,-1
 896 0 l 1,24,-1
 896 -128 l 1,25,-1
 0 -128 l 1,16,-1
EndSplineSet
Validated: 1
EndChar

StartChar: E
Encoding: 69 69 19
Width: 1216
GlyphClass: 1
Flags: W
LayerCount: 2
Fore
SplineSet
896 0 m 1,0,-1
 896 128 l 1,1,-1
 384 128 l 1,2,-1
 384 384 l 1,3,-1
 768 384 l 1,4,-1
 768 512 l 1,5,-1
 384 512 l 1,6,-1
 384 640 l 1,7,-1
 896 640 l 1,8,-1
 896 768 l 1,9,-1
 128 768 l 1,10,-1
 128 0 l 1,11,-1
 896 0 l 1,0,-1
0 -128 m 1,12,-1
 0 896 l 1,13,-1
 1024 896 l 1,14,-1
 1024 512 l 1,15,-1
 896 512 l 1,16,-1
 896 256 l 1,17,-1
 1024 256 l 1,18,-1
 1024 -128 l 1,19,-1
 0 -128 l 1,12,-1
EndSplineSet
Validated: 1
EndChar

StartChar: F
Encoding: 70 70 20
Width: 1216
GlyphClass: 1
Flags: W
LayerCount: 2
Fore
SplineSet
384 0 m 1,0,-1
 384 384 l 1,1,-1
 768 384 l 1,2,-1
 768 512 l 1,3,-1
 384 512 l 1,4,-1
 384 640 l 1,5,-1
 896 640 l 1,6,-1
 896 768 l 1,7,-1
 128 768 l 1,8,-1
 128 0 l 1,9,-1
 384 0 l 1,0,-1
0 -128 m 1,10,-1
 0 896 l 1,11,-1
 1024 896 l 1,12,-1
 1024 512 l 1,13,-1
 896 512 l 1,14,-1
 896 256 l 1,15,-1
 512 256 l 1,16,-1
 512 -128 l 1,17,-1
 0 -128 l 1,10,-1
EndSplineSet
Validated: 1
EndChar

StartChar: G
Encoding: 71 71 21
Width: 1216
GlyphClass: 1
Flags: W
LayerCount: 2
Fore
SplineSet
128 0 m 1,0,-1
 128 128 l 1,1,-1
 256 128 l 1,2,-1
 256 0 l 1,3,-1
 128 0 l 1,0,-1
256 -128 m 1,4,-1
 256 0 l 1,5,-1
 768 0 l 1,6,-1
 768 128 l 1,7,-1
 896 128 l 1,8,-1
 896 384 l 1,9,-1
 512 384 l 1,10,-1
 512 256 l 1,11,-1
 640 256 l 1,12,-1
 640 128 l 1,13,-1
 384 128 l 1,14,-1
 384 640 l 1,15,-1
 640 640 l 1,16,-1
 640 512 l 1,17,-1
 896 512 l 1,18,-1
 896 640 l 1,19,-1
 768 640 l 1,20,-1
 768 768 l 1,21,-1
 256 768 l 1,22,-1
 256 640 l 1,23,-1
 128 640 l 1,24,-1
 128 128 l 1,25,-1
 0 128 l 1,26,-1
 0 768 l 1,27,-1
 128 768 l 1,28,-1
 128 896 l 1,29,-1
 896 896 l 1,30,-1
 896 768 l 1,31,-1
 1024 768 l 1,32,-1
 1024 0 l 1,33,-1
 896 0 l 1,34,-1
 896 -128 l 1,35,-1
 256 -128 l 1,4,-1
EndSplineSet
Validated: 5
EndChar

StartChar: H
Encoding: 72 72 22
Width: 1216
GlyphClass: 1
Flags: W
LayerCount: 2
Fore
SplineSet
896 0 m 1,0,-1
 896 768 l 1,1,-1
 640 768 l 1,2,-1
 640 512 l 1,3,-1
 384 512 l 1,4,-1
 384 768 l 1,5,-1
 128 768 l 1,6,-1
 128 0 l 1,7,-1
 384 0 l 1,8,-1
 384 384 l 1,9,-1
 640 384 l 1,10,-1
 640 0 l 1,11,-1
 896 0 l 1,0,-1
0 -128 m 1,12,-1
 0 896 l 1,13,-1
 1024 896 l 1,14,-1
 1024 -128 l 1,15,-1
 0 -128 l 1,12,-1
EndSplineSet
Validated: 1
EndChar

StartChar: I
Encoding: 73 73 23
Width: 704
GlyphClass: 1
Flags: W
LayerCount: 2
Fore
SplineSet
384 0 m 1,0,-1
 384 768 l 1,1,-1
 128 768 l 1,2,-1
 128 0 l 1,3,-1
 384 0 l 1,0,-1
0 -128 m 1,4,-1
 0 896 l 1,5,-1
 512 896 l 1,6,-1
 512 -128 l 1,7,-1
 0 -128 l 1,4,-1
EndSplineSet
Validated: 1
EndChar

StartChar: J
Encoding: 74 74 24
Width: 1216
GlyphClass: 1
Flags: W
LayerCount: 2
Fore
SplineSet
256 -128 m 1,0,-1
 256 0 l 1,1,-1
 768 0 l 1,2,-1
 768 -128 l 1,3,-1
 256 -128 l 1,0,-1
128 0 m 1,4,-1
 128 128 l 1,5,-1
 256 128 l 1,6,-1
 256 0 l 1,7,-1
 128 0 l 1,4,-1
768 0 m 1,8,-1
 768 128 l 1,9,-1
 896 128 l 1,10,-1
 896 0 l 1,11,-1
 768 0 l 1,8,-1
0 128 m 1,12,-1
 0 512 l 1,13,-1
 512 512 l 1,14,-1
 512 896 l 1,15,-1
 1024 896 l 1,16,-1
 1024 128 l 1,17,-1
 896 128 l 1,18,-1
 896 768 l 1,19,-1
 640 768 l 1,20,-1
 640 128 l 1,21,-1
 384 128 l 1,22,-1
 384 384 l 1,23,-1
 128 384 l 1,24,-1
 128 128 l 1,25,-1
 0 128 l 1,12,-1
EndSplineSet
Validated: 5
EndChar

StartChar: K
Encoding: 75 75 25
Width: 1216
GlyphClass: 1
Flags: W
LayerCount: 2
Fore
SplineSet
640 -128 m 1,0,-1
 640 0 l 1,1,-1
 896 0 l 1,2,-1
 896 128 l 1,3,-1
 1024 128 l 1,4,-1
 1024 -128 l 1,5,-1
 640 -128 l 1,0,-1
768 128 m 1,6,-1
 768 256 l 1,7,-1
 896 256 l 1,8,-1
 896 128 l 1,9,-1
 768 128 l 1,6,-1
640 256 m 1,10,-1
 640 512 l 1,11,-1
 768 512 l 1,12,-1
 768 256 l 1,13,-1
 640 256 l 1,10,-1
768 512 m 1,14,-1
 768 640 l 1,15,-1
 896 640 l 1,16,-1
 896 512 l 1,17,-1
 768 512 l 1,14,-1
0 -128 m 1,18,-1
 0 896 l 1,19,-1
 512 896 l 1,20,-1
 512 768 l 1,21,-1
 640 768 l 1,22,-1
 640 640 l 1,23,-1
 512 640 l 1,24,-1
 512 512 l 1,25,-1
 384 512 l 1,26,-1
 384 768 l 1,27,-1
 128 768 l 1,28,-1
 128 0 l 1,29,-1
 384 0 l 1,30,-1
 384 256 l 1,31,-1
 512 256 l 1,32,-1
 512 128 l 1,33,-1
 640 128 l 1,34,-1
 640 0 l 1,35,-1
 512 0 l 1,36,-1
 512 -128 l 1,37,-1
 0 -128 l 1,18,-1
896 640 m 1,38,-1
 896 768 l 1,39,-1
 640 768 l 1,40,-1
 640 896 l 1,41,-1
 1024 896 l 1,42,-1
 1024 640 l 1,43,-1
 896 640 l 1,38,-1
EndSplineSet
Validated: 5
EndChar

StartChar: L
Encoding: 76 76 26
Width: 1216
GlyphClass: 1
Flags: W
LayerCount: 2
Fore
SplineSet
896 0 m 1,0,-1
 896 128 l 1,1,-1
 384 128 l 1,2,-1
 384 768 l 1,3,-1
 128 768 l 1,4,-1
 128 0 l 1,5,-1
 896 0 l 1,0,-1
0 -128 m 1,6,-1
 0 896 l 1,7,-1
 512 896 l 1,8,-1
 512 256 l 1,9,-1
 1024 256 l 1,10,-1
 1024 -128 l 1,11,-1
 0 -128 l 1,6,-1
EndSplineSet
Validated: 1
EndChar

StartChar: M
Encoding: 77 77 27
Width: 1216
GlyphClass: 1
Flags: W
LayerCount: 2
Fore
SplineSet
768 640 m 1,0,-1
 768 768 l 1,1,-1
 896 768 l 1,2,-1
 896 640 l 1,3,-1
 768 640 l 1,0,-1
0 -128 m 1,4,-1
 0 896 l 1,5,-1
 768 896 l 1,6,-1
 768 768 l 1,7,-1
 128 768 l 1,8,-1
 128 0 l 1,9,-1
 256 0 l 1,10,-1
 256 640 l 1,11,-1
 384 640 l 1,12,-1
 384 0 l 1,13,-1
 512 0 l 1,14,-1
 512 640 l 1,15,-1
 640 640 l 1,16,-1
 640 0 l 1,17,-1
 896 0 l 1,18,-1
 896 640 l 1,19,-1
 1024 640 l 1,20,-1
 1024 -128 l 1,21,-1
 0 -128 l 1,4,-1
EndSplineSet
Validated: 5
EndChar

StartChar: N
Encoding: 78 78 28
Width: 1216
GlyphClass: 1
Flags: W
LayerCount: 2
Fore
SplineSet
768 640 m 1,0,-1
 768 768 l 1,1,-1
 896 768 l 1,2,-1
 896 640 l 1,3,-1
 768 640 l 1,0,-1
0 -128 m 1,4,-1
 0 896 l 1,5,-1
 768 896 l 1,6,-1
 768 768 l 1,7,-1
 128 768 l 1,8,-1
 128 0 l 1,9,-1
 384 0 l 1,10,-1
 384 640 l 1,11,-1
 640 640 l 1,12,-1
 640 0 l 1,13,-1
 896 0 l 1,14,-1
 896 640 l 1,15,-1
 1024 640 l 1,16,-1
 1024 -128 l 1,17,-1
 0 -128 l 1,4,-1
EndSplineSet
Validated: 5
EndChar

StartChar: O
Encoding: 79 79 29
Width: 1216
GlyphClass: 1
Flags: W
LayerCount: 2
Fore
SplineSet
256 -128 m 1,0,-1
 256 0 l 1,1,-1
 768 0 l 1,2,-1
 768 -128 l 1,3,-1
 256 -128 l 1,0,-1
128 0 m 1,4,-1
 128 128 l 1,5,-1
 256 128 l 1,6,-1
 256 0 l 1,7,-1
 128 0 l 1,4,-1
768 0 m 1,8,-1
 768 128 l 1,9,-1
 896 128 l 1,10,-1
 896 0 l 1,11,-1
 768 0 l 1,8,-1
0 128 m 1,12,-1
 0 640 l 1,13,-1
 128 640 l 1,14,-1
 128 128 l 1,15,-1
 0 128 l 1,12,-1
384 128 m 1,16,-1
 384 640 l 1,17,-1
 640 640 l 1,18,-1
 640 128 l 1,19,-1
 384 128 l 1,16,-1
896 128 m 1,20,-1
 896 640 l 1,21,-1
 1024 640 l 1,22,-1
 1024 128 l 1,23,-1
 896 128 l 1,20,-1
128 640 m 1,24,-1
 128 768 l 1,25,-1
 256 768 l 1,26,-1
 256 640 l 1,27,-1
 128 640 l 1,24,-1
768 640 m 1,28,-1
 768 768 l 1,29,-1
 896 768 l 1,30,-1
 896 640 l 1,31,-1
 768 640 l 1,28,-1
256 768 m 1,32,-1
 256 896 l 1,33,-1
 768 896 l 1,34,-1
 768 768 l 1,35,-1
 256 768 l 1,32,-1
EndSplineSet
Validated: 5
EndChar

StartChar: P
Encoding: 80 80 30
Width: 1216
GlyphClass: 1
Flags: W
LayerCount: 2
Fore
SplineSet
768 256 m 1,0,-1
 768 384 l 1,1,-1
 896 384 l 1,2,-1
 896 256 l 1,3,-1
 768 256 l 1,0,-1
384 384 m 1,4,-1
 384 640 l 1,5,-1
 640 640 l 1,6,-1
 640 384 l 1,7,-1
 384 384 l 1,4,-1
896 384 m 1,8,-1
 896 640 l 1,9,-1
 1024 640 l 1,10,-1
 1024 384 l 1,11,-1
 896 384 l 1,8,-1
768 640 m 1,12,-1
 768 768 l 1,13,-1
 896 768 l 1,14,-1
 896 640 l 1,15,-1
 768 640 l 1,12,-1
0 -128 m 1,16,-1
 0 896 l 1,17,-1
 768 896 l 1,18,-1
 768 768 l 1,19,-1
 128 768 l 1,20,-1
 128 0 l 1,21,-1
 384 0 l 1,22,-1
 384 256 l 1,23,-1
 768 256 l 1,24,-1
 768 128 l 1,25,-1
 512 128 l 1,26,-1
 512 -128 l 1,27,-1
 0 -128 l 1,16,-1
EndSplineSet
Validated: 5
EndChar

StartChar: Q
Encoding: 81 81 31
Width: 1216
GlyphClass: 1
Flags: W
LayerCount: 2
Fore
SplineSet
256 -128 m 1,0,-1
 256 0 l 1,1,-1
 640 0 l 1,2,-1
 640 -128 l 1,3,-1
 256 -128 l 1,0,-1
128 0 m 1,4,-1
 128 128 l 1,5,-1
 256 128 l 1,6,-1
 256 0 l 1,7,-1
 128 0 l 1,4,-1
640 0 m 1,8,-1
 640 128 l 1,9,-1
 768 128 l 1,10,-1
 768 0 l 1,11,-1
 640 0 l 1,8,-1
768 -128 m 1,12,-1
 768 0 l 1,13,-1
 896 0 l 1,14,-1
 896 128 l 1,15,-1
 1024 128 l 1,16,-1
 1024 -128 l 1,17,-1
 768 -128 l 1,12,-1
768 128 m 1,18,-1
 768 256 l 1,19,-1
 896 256 l 1,20,-1
 896 128 l 1,21,-1
 768 128 l 1,18,-1
0 128 m 1,22,-1
 0 640 l 1,23,-1
 128 640 l 1,24,-1
 128 128 l 1,25,-1
 0 128 l 1,22,-1
384 128 m 1,26,-1
 384 640 l 1,27,-1
 640 640 l 1,28,-1
 640 256 l 1,29,-1
 512 256 l 1,30,-1
 512 128 l 1,31,-1
 384 128 l 1,26,-1
896 256 m 1,32,-1
 896 640 l 1,33,-1
 1024 640 l 1,34,-1
 1024 256 l 1,35,-1
 896 256 l 1,32,-1
128 640 m 1,36,-1
 128 768 l 1,37,-1
 256 768 l 1,38,-1
 256 640 l 1,39,-1
 128 640 l 1,36,-1
768 640 m 1,40,-1
 768 768 l 1,41,-1
 896 768 l 1,42,-1
 896 640 l 1,43,-1
 768 640 l 1,40,-1
256 768 m 1,44,-1
 256 896 l 1,45,-1
 768 896 l 1,46,-1
 768 768 l 1,47,-1
 256 768 l 1,44,-1
EndSplineSet
Validated: 5
EndChar

StartChar: R
Encoding: 82 82 32
Width: 1216
GlyphClass: 1
Flags: W
LayerCount: 2
Fore
SplineSet
384 384 m 1,0,-1
 384 640 l 1,1,-1
 640 640 l 1,2,-1
 640 384 l 1,3,-1
 384 384 l 1,0,-1
896 384 m 1,4,-1
 896 640 l 1,5,-1
 1024 640 l 1,6,-1
 1024 384 l 1,7,-1
 896 384 l 1,4,-1
768 640 m 1,8,-1
 768 768 l 1,9,-1
 896 768 l 1,10,-1
 896 640 l 1,11,-1
 768 640 l 1,8,-1
0 -128 m 1,12,-1
 0 896 l 1,13,-1
 768 896 l 1,14,-1
 768 768 l 1,15,-1
 128 768 l 1,16,-1
 128 0 l 1,17,-1
 384 0 l 1,18,-1
 384 256 l 1,19,-1
 640 256 l 1,20,-1
 640 0 l 1,21,-1
 896 0 l 1,22,-1
 896 128 l 1,23,-1
 768 128 l 1,24,-1
 768 384 l 1,25,-1
 896 384 l 1,26,-1
 896 256 l 1,27,-1
 1024 256 l 1,28,-1
 1024 -128 l 1,29,-1
 0 -128 l 1,12,-1
EndSplineSet
Validated: 5
EndChar

StartChar: S
Encoding: 83 83 33
Width: 1216
GlyphClass: 1
Flags: W
LayerCount: 2
Fore
SplineSet
0 -128 m 1,0,-1
 0 640 l 1,1,-1
 128 640 l 1,2,-1
 128 384 l 1,3,-1
 640 384 l 1,4,-1
 640 256 l 1,5,-1
 128 256 l 1,6,-1
 128 0 l 1,7,-1
 768 0 l 1,8,-1
 768 128 l 1,9,-1
 896 128 l 1,10,-1
 896 384 l 1,11,-1
 1024 384 l 1,12,-1
 1024 0 l 1,13,-1
 896 0 l 1,14,-1
 896 -128 l 1,15,-1
 0 -128 l 1,0,-1
128 640 m 1,16,-1
 128 768 l 1,17,-1
 256 768 l 1,18,-1
 256 640 l 1,19,-1
 128 640 l 1,16,-1
768 384 m 1,20,-1
 768 512 l 1,21,-1
 384 512 l 1,22,-1
 384 640 l 1,23,-1
 896 640 l 1,24,-1
 896 768 l 1,25,-1
 256 768 l 1,26,-1
 256 896 l 1,27,-1
 1024 896 l 1,28,-1
 1024 512 l 1,29,-1
 896 512 l 1,30,-1
 896 384 l 1,31,-1
 768 384 l 1,20,-1
EndSplineSet
Validated: 5
EndChar

StartChar: T
Encoding: 84 84 34
Width: 1216
GlyphClass: 1
Flags: W
LayerCount: 2
Fore
SplineSet
640 0 m 1,0,-1
 640 640 l 1,1,-1
 896 640 l 1,2,-1
 896 768 l 1,3,-1
 128 768 l 1,4,-1
 128 640 l 1,5,-1
 384 640 l 1,6,-1
 384 0 l 1,7,-1
 640 0 l 1,0,-1
256 -128 m 1,8,-1
 256 512 l 1,9,-1
 0 512 l 1,10,-1
 0 896 l 1,11,-1
 1024 896 l 1,12,-1
 1024 512 l 1,13,-1
 768 512 l 1,14,-1
 768 -128 l 1,15,-1
 256 -128 l 1,8,-1
EndSplineSet
Validated: 1
EndChar

StartChar: U
Encoding: 85 85 35
Width: 1216
GlyphClass: 1
Flags: W
LayerCount: 2
Fore
SplineSet
768 0 m 1,0,-1
 768 128 l 1,1,-1
 896 128 l 1,2,-1
 896 0 l 1,3,-1
 768 0 l 1,0,-1
128 -128 m 1,4,-1
 128 0 l 1,5,-1
 0 0 l 1,6,-1
 0 896 l 1,7,-1
 1024 896 l 1,8,-1
 1024 128 l 1,9,-1
 896 128 l 1,10,-1
 896 768 l 1,11,-1
 640 768 l 1,12,-1
 640 128 l 1,13,-1
 384 128 l 1,14,-1
 384 768 l 1,15,-1
 128 768 l 1,16,-1
 128 128 l 1,17,-1
 256 128 l 1,18,-1
 256 0 l 1,19,-1
 768 0 l 1,20,-1
 768 -128 l 1,21,-1
 128 -128 l 1,4,-1
EndSplineSet
Validated: 5
EndChar

StartChar: V
Encoding: 86 86 36
Width: 1216
GlyphClass: 1
Flags: W
LayerCount: 2
Fore
SplineSet
384 -128 m 1,0,-1
 384 0 l 1,1,-1
 640 0 l 1,2,-1
 640 -128 l 1,3,-1
 384 -128 l 1,0,-1
256 0 m 1,4,-1
 256 128 l 1,5,-1
 384 128 l 1,6,-1
 384 0 l 1,7,-1
 256 0 l 1,4,-1
640 0 m 1,8,-1
 640 128 l 1,9,-1
 768 128 l 1,10,-1
 768 0 l 1,11,-1
 640 0 l 1,8,-1
0 128 m 1,12,-1
 0 896 l 1,13,-1
 1024 896 l 1,14,-1
 1024 256 l 1,15,-1
 896 256 l 1,16,-1
 896 128 l 1,17,-1
 768 128 l 1,18,-1
 768 384 l 1,19,-1
 896 384 l 1,20,-1
 896 768 l 1,21,-1
 640 768 l 1,22,-1
 640 256 l 1,23,-1
 384 256 l 1,24,-1
 384 768 l 1,25,-1
 128 768 l 1,26,-1
 128 384 l 1,27,-1
 256 384 l 1,28,-1
 256 128 l 1,29,-1
 0 128 l 1,12,-1
EndSplineSet
Validated: 5
EndChar

StartChar: W
Encoding: 87 87 37
Width: 1216
GlyphClass: 1
Flags: W
LayerCount: 2
Fore
SplineSet
768 0 m 1,0,-1
 768 128 l 1,1,-1
 896 128 l 1,2,-1
 896 0 l 1,3,-1
 768 0 l 1,0,-1
0 -128 m 1,4,-1
 0 896 l 1,5,-1
 1024 896 l 1,6,-1
 1024 128 l 1,7,-1
 896 128 l 1,8,-1
 896 768 l 1,9,-1
 640 768 l 1,10,-1
 640 128 l 1,11,-1
 512 128 l 1,12,-1
 512 768 l 1,13,-1
 384 768 l 1,14,-1
 384 128 l 1,15,-1
 256 128 l 1,16,-1
 256 768 l 1,17,-1
 128 768 l 1,18,-1
 128 0 l 1,19,-1
 768 0 l 1,20,-1
 768 -128 l 1,21,-1
 0 -128 l 1,4,-1
EndSplineSet
Validated: 5
EndChar

StartChar: X
Encoding: 88 88 38
Width: 1216
GlyphClass: 1
Flags: W
LayerCount: 2
Fore
SplineSet
640 0 m 1,0,-1
 640 128 l 1,1,-1
 768 128 l 1,2,-1
 768 0 l 1,3,-1
 640 0 l 1,0,-1
768 -128 m 1,4,-1
 768 0 l 1,5,-1
 896 0 l 1,6,-1
 896 128 l 1,7,-1
 1024 128 l 1,8,-1
 1024 -128 l 1,9,-1
 768 -128 l 1,4,-1
0 -128 m 1,10,-1
 0 256 l 1,11,-1
 128 256 l 1,12,-1
 128 0 l 1,13,-1
 256 0 l 1,14,-1
 256 128 l 1,15,-1
 384 128 l 1,16,-1
 384 -128 l 1,17,-1
 0 -128 l 1,10,-1
768 128 m 1,18,-1
 768 256 l 1,19,-1
 896 256 l 1,20,-1
 896 128 l 1,21,-1
 768 128 l 1,18,-1
128 256 m 1,22,-1
 128 384 l 1,23,-1
 256 384 l 1,24,-1
 256 256 l 1,25,-1
 128 256 l 1,22,-1
256 384 m 1,26,-1
 256 512 l 1,27,-1
 384 512 l 1,28,-1
 384 384 l 1,29,-1
 256 384 l 1,26,-1
384 128 m 1,30,-1
 384 256 l 1,31,-1
 512 256 l 1,32,-1
 512 384 l 1,33,-1
 640 384 l 1,34,-1
 640 512 l 1,35,-1
 768 512 l 1,36,-1
 768 256 l 1,37,-1
 640 256 l 1,38,-1
 640 128 l 1,39,-1
 384 128 l 1,30,-1
128 512 m 1,40,-1
 128 640 l 1,41,-1
 256 640 l 1,42,-1
 256 512 l 1,43,-1
 128 512 l 1,40,-1
384 512 m 1,44,-1
 384 640 l 1,45,-1
 512 640 l 1,46,-1
 512 512 l 1,47,-1
 384 512 l 1,44,-1
768 512 m 1,48,-1
 768 640 l 1,49,-1
 896 640 l 1,50,-1
 896 512 l 1,51,-1
 768 512 l 1,48,-1
256 640 m 1,52,-1
 256 768 l 1,53,-1
 384 768 l 1,54,-1
 384 640 l 1,55,-1
 256 640 l 1,52,-1
512 640 m 1,56,-1
 512 768 l 1,57,-1
 640 768 l 1,58,-1
 640 640 l 1,59,-1
 512 640 l 1,56,-1
0 640 m 1,60,-1
 0 896 l 1,61,-1
 256 896 l 1,62,-1
 256 768 l 1,63,-1
 128 768 l 1,64,-1
 128 640 l 1,65,-1
 0 640 l 1,60,-1
896 640 m 1,66,-1
 896 768 l 1,67,-1
 640 768 l 1,68,-1
 640 896 l 1,69,-1
 1024 896 l 1,70,-1
 1024 640 l 1,71,-1
 896 640 l 1,66,-1
EndSplineSet
Validated: 5
EndChar

StartChar: Y
Encoding: 89 89 39
Width: 1216
GlyphClass: 1
Flags: W
LayerCount: 2
Fore
SplineSet
640 0 m 1,0,-1
 640 384 l 1,1,-1
 896 384 l 1,2,-1
 896 768 l 1,3,-1
 640 768 l 1,4,-1
 640 512 l 1,5,-1
 384 512 l 1,6,-1
 384 768 l 1,7,-1
 128 768 l 1,8,-1
 128 384 l 1,9,-1
 384 384 l 1,10,-1
 384 0 l 1,11,-1
 640 0 l 1,0,-1
256 -128 m 1,12,-1
 256 256 l 1,13,-1
 0 256 l 1,14,-1
 0 896 l 1,15,-1
 1024 896 l 1,16,-1
 1024 256 l 1,17,-1
 768 256 l 1,18,-1
 768 -128 l 1,19,-1
 256 -128 l 1,12,-1
EndSplineSet
Validated: 1
EndChar

StartChar: Z
Encoding: 90 90 40
Width: 1216
GlyphClass: 1
Flags: W
LayerCount: 2
Fore
SplineSet
128 256 m 1,0,-1
 128 384 l 1,1,-1
 256 384 l 1,2,-1
 256 256 l 1,3,-1
 128 256 l 1,0,-1
0 -128 m 1,4,-1
 0 256 l 1,5,-1
 128 256 l 1,6,-1
 128 0 l 1,7,-1
 896 0 l 1,8,-1
 896 128 l 1,9,-1
 384 128 l 1,10,-1
 384 256 l 1,11,-1
 512 256 l 1,12,-1
 512 384 l 1,13,-1
 640 384 l 1,14,-1
 640 512 l 1,15,-1
 768 512 l 1,16,-1
 768 640 l 1,17,-1
 896 640 l 1,18,-1
 896 768 l 1,19,-1
 128 768 l 1,20,-1
 128 640 l 1,21,-1
 512 640 l 1,22,-1
 512 512 l 1,23,-1
 384 512 l 1,24,-1
 384 384 l 1,25,-1
 256 384 l 1,26,-1
 256 512 l 1,27,-1
 0 512 l 1,28,-1
 0 896 l 1,29,-1
 1024 896 l 1,30,-1
 1024 512 l 1,31,-1
 896 512 l 1,32,-1
 896 384 l 1,33,-1
 768 384 l 1,34,-1
 768 256 l 1,35,-1
 1024 256 l 1,36,-1
 1024 -128 l 1,37,-1
 0 -128 l 1,4,-1
EndSplineSet
Validated: 5
EndChar

StartChar: a
Encoding: 97 97 41
Width: 960
GlyphClass: 1
Flags: W
LayerCount: 2
Fore
SplineSet
512 384 m 1,0,-1
 512 640 l 1,1,-1
 256 640 l 1,2,-1
 256 384 l 1,3,-1
 512 384 l 1,0,-1
0 0 m 1,4,-1
 0 640 l 1,5,-1
 128 640 l 1,6,-1
 128 768 l 1,7,-1
 640 768 l 1,8,-1
 640 640 l 1,9,-1
 768 640 l 1,10,-1
 768 0 l 1,11,-1
 512 0 l 1,12,-1
 512 256 l 1,13,-1
 256 256 l 1,14,-1
 256 0 l 1,15,-1
 0 0 l 1,4,-1
EndSplineSet
Validated: 1
EndChar

StartChar: b
Encoding: 98 98 42
Width: 960
GlyphClass: 1
Flags: W
LayerCount: 2
Fore
SplineSet
512 128 m 1,0,-1
 512 384 l 1,1,-1
 256 384 l 1,2,-1
 256 128 l 1,3,-1
 512 128 l 1,0,-1
512 512 m 1,4,-1
 512 640 l 1,5,-1
 256 640 l 1,6,-1
 256 512 l 1,7,-1
 512 512 l 1,4,-1
0 0 m 1,8,-1
 0 768 l 1,9,-1
 640 768 l 1,10,-1
 640 640 l 1,11,-1
 768 640 l 1,12,-1
 768 512 l 1,13,-1
 640 512 l 1,14,-1
 640 384 l 1,15,-1
 768 384 l 1,16,-1
 768 128 l 1,17,-1
 640 128 l 1,18,-1
 640 0 l 1,19,-1
 0 0 l 1,8,-1
EndSplineSet
Validated: 1
EndChar

StartChar: c
Encoding: 99 99 43
Width: 960
GlyphClass: 1
Flags: W
LayerCount: 2
Fore
SplineSet
128 0 m 1,0,-1
 128 128 l 1,1,-1
 0 128 l 1,2,-1
 0 640 l 1,3,-1
 128 640 l 1,4,-1
 128 768 l 1,5,-1
 640 768 l 1,6,-1
 640 640 l 1,7,-1
 768 640 l 1,8,-1
 768 512 l 1,9,-1
 512 512 l 1,10,-1
 512 640 l 1,11,-1
 256 640 l 1,12,-1
 256 128 l 1,13,-1
 512 128 l 1,14,-1
 512 256 l 1,15,-1
 768 256 l 1,16,-1
 768 128 l 1,17,-1
 640 128 l 1,18,-1
 640 0 l 1,19,-1
 128 0 l 1,0,-1
EndSplineSet
Validated: 1
EndChar

StartChar: d
Encoding: 100 100 44
Width: 960
GlyphClass: 1
Flags: W
LayerCount: 2
Fore
SplineSet
512 128 m 1,0,-1
 512 512 l 1,1,-1
 384 512 l 1,2,-1
 384 640 l 1,3,-1
 256 640 l 1,4,-1
 256 128 l 1,5,-1
 512 128 l 1,0,-1
0 0 m 1,6,-1
 0 768 l 1,7,-1
 512 768 l 1,8,-1
 512 640 l 1,9,-1
 640 640 l 1,10,-1
 640 512 l 1,11,-1
 768 512 l 1,12,-1
 768 128 l 1,13,-1
 640 128 l 1,14,-1
 640 0 l 1,15,-1
 0 0 l 1,6,-1
EndSplineSet
Validated: 1
EndChar

StartChar: e
Encoding: 101 101 45
Width: 960
GlyphClass: 1
Flags: W
LayerCount: 2
Fore
SplineSet
0 0 m 1,0,-1
 0 768 l 1,1,-1
 768 768 l 1,2,-1
 768 640 l 1,3,-1
 256 640 l 1,4,-1
 256 512 l 1,5,-1
 640 512 l 1,6,-1
 640 384 l 1,7,-1
 256 384 l 1,8,-1
 256 128 l 1,9,-1
 768 128 l 1,10,-1
 768 0 l 1,11,-1
 0 0 l 1,0,-1
EndSplineSet
Validated: 1
EndChar

StartChar: f
Encoding: 102 102 46
Width: 960
GlyphClass: 1
Flags: W
LayerCount: 2
Fore
SplineSet
0 0 m 1,0,-1
 0 768 l 1,1,-1
 768 768 l 1,2,-1
 768 640 l 1,3,-1
 256 640 l 1,4,-1
 256 512 l 1,5,-1
 640 512 l 1,6,-1
 640 384 l 1,7,-1
 256 384 l 1,8,-1
 256 0 l 1,9,-1
 0 0 l 1,0,-1
EndSplineSet
Validated: 1
EndChar

StartChar: g
Encoding: 103 103 47
Width: 960
GlyphClass: 1
Flags: W
LayerCount: 2
Fore
SplineSet
128 0 m 1,0,-1
 128 128 l 1,1,-1
 0 128 l 1,2,-1
 0 640 l 1,3,-1
 128 640 l 1,4,-1
 128 768 l 1,5,-1
 640 768 l 1,6,-1
 640 640 l 1,7,-1
 768 640 l 1,8,-1
 768 512 l 1,9,-1
 512 512 l 1,10,-1
 512 640 l 1,11,-1
 256 640 l 1,12,-1
 256 128 l 1,13,-1
 512 128 l 1,14,-1
 512 256 l 1,15,-1
 384 256 l 1,16,-1
 384 384 l 1,17,-1
 768 384 l 1,18,-1
 768 128 l 1,19,-1
 640 128 l 1,20,-1
 640 0 l 1,21,-1
 128 0 l 1,0,-1
EndSplineSet
Validated: 1
EndChar

StartChar: h
Encoding: 104 104 48
Width: 960
GlyphClass: 1
Flags: W
LayerCount: 2
Fore
SplineSet
0 0 m 1,0,-1
 0 768 l 1,1,-1
 256 768 l 1,2,-1
 256 512 l 1,3,-1
 512 512 l 1,4,-1
 512 768 l 1,5,-1
 768 768 l 1,6,-1
 768 0 l 1,7,-1
 512 0 l 1,8,-1
 512 384 l 1,9,-1
 256 384 l 1,10,-1
 256 0 l 1,11,-1
 0 0 l 1,0,-1
EndSplineSet
Validated: 1
EndChar

StartChar: i
Encoding: 105 105 49
Width: 448
GlyphClass: 1
Flags: W
LayerCount: 2
Fore
SplineSet
0 0 m 1,0,-1
 0 768 l 1,1,-1
 256 768 l 1,2,-1
 256 0 l 1,3,-1
 0 0 l 1,0,-1
EndSplineSet
Validated: 1
EndChar

StartChar: j
Encoding: 106 106 50
Width: 960
GlyphClass: 1
Flags: W
LayerCount: 2
Fore
SplineSet
128 0 m 1,0,-1
 128 128 l 1,1,-1
 0 128 l 1,2,-1
 0 384 l 1,3,-1
 256 384 l 1,4,-1
 256 128 l 1,5,-1
 512 128 l 1,6,-1
 512 768 l 1,7,-1
 768 768 l 1,8,-1
 768 128 l 1,9,-1
 640 128 l 1,10,-1
 640 0 l 1,11,-1
 128 0 l 1,0,-1
EndSplineSet
Validated: 1
EndChar

StartChar: k
Encoding: 107 107 51
Width: 960
GlyphClass: 1
Flags: W
LayerCount: 2
Fore
SplineSet
0 0 m 1,0,-1
 0 768 l 1,1,-1
 256 768 l 1,2,-1
 256 512 l 1,3,-1
 384 512 l 1,4,-1
 384 640 l 1,5,-1
 512 640 l 1,6,-1
 512 768 l 1,7,-1
 768 768 l 1,8,-1
 768 640 l 1,9,-1
 640 640 l 1,10,-1
 640 512 l 1,11,-1
 512 512 l 1,12,-1
 512 256 l 1,13,-1
 640 256 l 1,14,-1
 640 128 l 1,15,-1
 768 128 l 1,16,-1
 768 0 l 1,17,-1
 512 0 l 1,18,-1
 512 128 l 1,19,-1
 384 128 l 1,20,-1
 384 256 l 1,21,-1
 256 256 l 1,22,-1
 256 0 l 1,23,-1
 0 0 l 1,0,-1
EndSplineSet
Validated: 1
EndChar

StartChar: l
Encoding: 108 108 52
Width: 960
GlyphClass: 1
Flags: W
LayerCount: 2
Fore
SplineSet
0 0 m 1,0,-1
 0 768 l 1,1,-1
 256 768 l 1,2,-1
 256 128 l 1,3,-1
 768 128 l 1,4,-1
 768 0 l 1,5,-1
 0 0 l 1,0,-1
EndSplineSet
Validated: 1
EndChar

StartChar: m
Encoding: 109 109 53
Width: 960
GlyphClass: 1
Flags: W
LayerCount: 2
Fore
SplineSet
0 0 m 1,0,-1
 0 768 l 1,1,-1
 640 768 l 1,2,-1
 640 640 l 1,3,-1
 768 640 l 1,4,-1
 768 0 l 1,5,-1
 512 0 l 1,6,-1
 512 640 l 1,7,-1
 384 640 l 1,8,-1
 384 0 l 1,9,-1
 256 0 l 1,10,-1
 256 640 l 1,11,-1
 128 640 l 1,12,-1
 128 0 l 1,13,-1
 0 0 l 1,0,-1
EndSplineSet
Validated: 1
EndChar

StartChar: n
Encoding: 110 110 54
Width: 960
GlyphClass: 1
Flags: W
LayerCount: 2
Fore
SplineSet
0 0 m 1,0,-1
 0 768 l 1,1,-1
 640 768 l 1,2,-1
 640 640 l 1,3,-1
 768 640 l 1,4,-1
 768 0 l 1,5,-1
 512 0 l 1,6,-1
 512 640 l 1,7,-1
 256 640 l 1,8,-1
 256 0 l 1,9,-1
 0 0 l 1,0,-1
EndSplineSet
Validated: 1
EndChar

StartChar: o
Encoding: 111 111 55
Width: 960
GlyphClass: 1
Flags: W
LayerCount: 2
Fore
SplineSet
512 128 m 1,0,-1
 512 640 l 1,1,-1
 256 640 l 1,2,-1
 256 128 l 1,3,-1
 512 128 l 1,0,-1
128 0 m 1,4,-1
 128 128 l 1,5,-1
 0 128 l 1,6,-1
 0 640 l 1,7,-1
 128 640 l 1,8,-1
 128 768 l 1,9,-1
 640 768 l 1,10,-1
 640 640 l 1,11,-1
 768 640 l 1,12,-1
 768 128 l 1,13,-1
 640 128 l 1,14,-1
 640 0 l 1,15,-1
 128 0 l 1,4,-1
EndSplineSet
Validated: 1
EndChar

StartChar: p
Encoding: 112 112 56
Width: 960
GlyphClass: 1
Flags: W
LayerCount: 2
Fore
SplineSet
512 384 m 1,0,-1
 512 640 l 1,1,-1
 256 640 l 1,2,-1
 256 384 l 1,3,-1
 512 384 l 1,0,-1
0 0 m 1,4,-1
 0 768 l 1,5,-1
 640 768 l 1,6,-1
 640 640 l 1,7,-1
 768 640 l 1,8,-1
 768 384 l 1,9,-1
 640 384 l 1,10,-1
 640 256 l 1,11,-1
 256 256 l 1,12,-1
 256 0 l 1,13,-1
 0 0 l 1,4,-1
EndSplineSet
Validated: 1
EndChar

StartChar: q
Encoding: 113 113 57
Width: 960
GlyphClass: 1
Flags: W
LayerCount: 2
Fore
SplineSet
640 0 m 1,0,-1
 640 128 l 1,1,-1
 768 128 l 1,2,-1
 768 0 l 1,3,-1
 640 0 l 1,0,-1
384 128 m 1,4,-1
 384 256 l 1,5,-1
 512 256 l 1,6,-1
 512 640 l 1,7,-1
 256 640 l 1,8,-1
 256 128 l 1,9,-1
 384 128 l 1,4,-1
128 0 m 1,10,-1
 128 128 l 1,11,-1
 0 128 l 1,12,-1
 0 640 l 1,13,-1
 128 640 l 1,14,-1
 128 768 l 1,15,-1
 640 768 l 1,16,-1
 640 640 l 1,17,-1
 768 640 l 1,18,-1
 768 256 l 1,19,-1
 640 256 l 1,20,-1
 640 128 l 1,21,-1
 512 128 l 1,22,-1
 512 0 l 1,23,-1
 128 0 l 1,10,-1
EndSplineSet
Validated: 5
EndChar

StartChar: r
Encoding: 114 114 58
Width: 960
GlyphClass: 1
Flags: W
LayerCount: 2
Fore
SplineSet
512 384 m 1,0,-1
 512 640 l 1,1,-1
 256 640 l 1,2,-1
 256 384 l 1,3,-1
 512 384 l 1,0,-1
0 0 m 1,4,-1
 0 768 l 1,5,-1
 640 768 l 1,6,-1
 640 640 l 1,7,-1
 768 640 l 1,8,-1
 768 384 l 1,9,-1
 640 384 l 1,10,-1
 640 128 l 1,11,-1
 768 128 l 1,12,-1
 768 0 l 1,13,-1
 512 0 l 1,14,-1
 512 256 l 1,15,-1
 256 256 l 1,16,-1
 256 0 l 1,17,-1
 0 0 l 1,4,-1
EndSplineSet
Validated: 1
EndChar

StartChar: s
Encoding: 115 115 59
Width: 960
GlyphClass: 1
Flags: W
LayerCount: 2
Fore
SplineSet
0 0 m 1,0,-1
 0 256 l 1,1,-1
 512 256 l 1,2,-1
 512 384 l 1,3,-1
 0 384 l 1,4,-1
 0 640 l 1,5,-1
 128 640 l 1,6,-1
 128 768 l 1,7,-1
 768 768 l 1,8,-1
 768 640 l 1,9,-1
 256 640 l 1,10,-1
 256 512 l 1,11,-1
 640 512 l 1,12,-1
 640 384 l 1,13,-1
 768 384 l 1,14,-1
 768 128 l 1,15,-1
 640 128 l 1,16,-1
 640 0 l 1,17,-1
 0 0 l 1,0,-1
EndSplineSet
Validated: 1
EndChar

StartChar: t
Encoding: 116 116 60
Width: 960
GlyphClass: 1
Flags: W
LayerCount: 2
Fore
SplineSet
256 0 m 1,0,-1
 256 640 l 1,1,-1
 0 640 l 1,2,-1
 0 768 l 1,3,-1
 768 768 l 1,4,-1
 768 640 l 1,5,-1
 512 640 l 1,6,-1
 512 0 l 1,7,-1
 256 0 l 1,0,-1
EndSplineSet
Validated: 1
EndChar

StartChar: u
Encoding: 117 117 61
Width: 960
GlyphClass: 1
Flags: W
LayerCount: 2
Fore
SplineSet
128 0 m 1,0,-1
 128 128 l 1,1,-1
 0 128 l 1,2,-1
 0 768 l 1,3,-1
 256 768 l 1,4,-1
 256 128 l 1,5,-1
 512 128 l 1,6,-1
 512 768 l 1,7,-1
 768 768 l 1,8,-1
 768 128 l 1,9,-1
 640 128 l 1,10,-1
 640 0 l 1,11,-1
 128 0 l 1,0,-1
EndSplineSet
Validated: 1
EndChar

StartChar: v
Encoding: 118 118 62
Width: 960
GlyphClass: 1
Flags: W
LayerCount: 2
Fore
SplineSet
256 0 m 1,0,-1
 256 128 l 1,1,-1
 128 128 l 1,2,-1
 128 384 l 1,3,-1
 0 384 l 1,4,-1
 0 768 l 1,5,-1
 256 768 l 1,6,-1
 256 256 l 1,7,-1
 512 256 l 1,8,-1
 512 768 l 1,9,-1
 768 768 l 1,10,-1
 768 384 l 1,11,-1
 640 384 l 1,12,-1
 640 128 l 1,13,-1
 512 128 l 1,14,-1
 512 0 l 1,15,-1
 256 0 l 1,0,-1
EndSplineSet
Validated: 1
EndChar

StartChar: w
Encoding: 119 119 63
Width: 960
GlyphClass: 1
Flags: W
LayerCount: 2
Fore
SplineSet
0 0 m 1,0,-1
 0 768 l 1,1,-1
 128 768 l 1,2,-1
 128 128 l 1,3,-1
 256 128 l 1,4,-1
 256 768 l 1,5,-1
 384 768 l 1,6,-1
 384 128 l 1,7,-1
 512 128 l 1,8,-1
 512 768 l 1,9,-1
 768 768 l 1,10,-1
 768 128 l 1,11,-1
 640 128 l 1,12,-1
 640 0 l 1,13,-1
 0 0 l 1,0,-1
EndSplineSet
Validated: 1
EndChar

StartChar: x
Encoding: 120 120 64
Width: 960
GlyphClass: 1
Flags: W
LayerCount: 2
Fore
SplineSet
640 0 m 1,0,-1
 640 128 l 1,1,-1
 768 128 l 1,2,-1
 768 0 l 1,3,-1
 640 0 l 1,0,-1
512 128 m 1,4,-1
 512 256 l 1,5,-1
 640 256 l 1,6,-1
 640 128 l 1,7,-1
 512 128 l 1,4,-1
128 512 m 1,8,-1
 128 640 l 1,9,-1
 256 640 l 1,10,-1
 256 512 l 1,11,-1
 128 512 l 1,8,-1
0 640 m 1,12,-1
 0 768 l 1,13,-1
 128 768 l 1,14,-1
 128 640 l 1,15,-1
 0 640 l 1,12,-1
0 0 m 1,16,-1
 0 256 l 1,17,-1
 128 256 l 1,18,-1
 128 384 l 1,19,-1
 256 384 l 1,20,-1
 256 512 l 1,21,-1
 384 512 l 1,22,-1
 384 640 l 1,23,-1
 512 640 l 1,24,-1
 512 768 l 1,25,-1
 768 768 l 1,26,-1
 768 640 l 1,27,-1
 640 640 l 1,28,-1
 640 512 l 1,29,-1
 512 512 l 1,30,-1
 512 384 l 1,31,-1
 384 384 l 1,32,-1
 384 256 l 1,33,-1
 256 256 l 1,34,-1
 256 128 l 1,35,-1
 128 128 l 1,36,-1
 128 0 l 1,37,-1
 0 0 l 1,16,-1
EndSplineSet
Validated: 5
EndChar

StartChar: y
Encoding: 121 121 65
Width: 960
GlyphClass: 1
Flags: W
LayerCount: 2
Fore
SplineSet
256 0 m 1,0,-1
 256 384 l 1,1,-1
 0 384 l 1,2,-1
 0 768 l 1,3,-1
 256 768 l 1,4,-1
 256 512 l 1,5,-1
 512 512 l 1,6,-1
 512 768 l 1,7,-1
 768 768 l 1,8,-1
 768 384 l 1,9,-1
 512 384 l 1,10,-1
 512 0 l 1,11,-1
 256 0 l 1,0,-1
EndSplineSet
Validated: 1
EndChar

StartChar: z
Encoding: 122 122 66
Width: 960
GlyphClass: 1
Flags: W
LayerCount: 2
Fore
SplineSet
0 0 m 1,0,-1
 0 256 l 1,1,-1
 128 256 l 1,2,-1
 128 384 l 1,3,-1
 256 384 l 1,4,-1
 256 512 l 1,5,-1
 384 512 l 1,6,-1
 384 640 l 1,7,-1
 0 640 l 1,8,-1
 0 768 l 1,9,-1
 768 768 l 1,10,-1
 768 640 l 1,11,-1
 640 640 l 1,12,-1
 640 512 l 1,13,-1
 512 512 l 1,14,-1
 512 384 l 1,15,-1
 384 384 l 1,16,-1
 384 256 l 1,17,-1
 256 256 l 1,18,-1
 256 128 l 1,19,-1
 768 128 l 1,20,-1
 768 0 l 1,21,-1
 0 0 l 1,0,-1
EndSplineSet
Validated: 1
EndChar

StartChar: multiply
Encoding: 215 215 67
Width: 832
GlyphClass: 1
Flags: W
LayerCount: 2
Fore
SplineSet
0 0 m 1,0,-1
 0 128 l 1,1,-1
 128 128 l 1,2,-1
 128 0 l 1,3,-1
 0 0 l 1,0,-1
512 0 m 1,4,-1
 512 128 l 1,5,-1
 640 128 l 1,6,-1
 640 0 l 1,7,-1
 512 0 l 1,4,-1
128 128 m 1,8,-1
 128 256 l 1,9,-1
 256 256 l 1,10,-1
 256 128 l 1,11,-1
 128 128 l 1,8,-1
384 128 m 1,12,-1
 384 256 l 1,13,-1
 512 256 l 1,14,-1
 512 128 l 1,15,-1
 384 128 l 1,12,-1
256 256 m 1,16,-1
 256 384 l 1,17,-1
 384 384 l 1,18,-1
 384 256 l 1,19,-1
 256 256 l 1,16,-1
128 384 m 1,20,-1
 128 512 l 1,21,-1
 256 512 l 1,22,-1
 256 384 l 1,23,-1
 128 384 l 1,20,-1
384 384 m 1,24,-1
 384 512 l 1,25,-1
 512 512 l 1,26,-1
 512 384 l 1,27,-1
 384 384 l 1,24,-1
0 512 m 1,28,-1
 0 640 l 1,29,-1
 128 640 l 1,30,-1
 128 512 l 1,31,-1
 0 512 l 1,28,-1
512 512 m 1,32,-1
 512 640 l 1,33,-1
 640 640 l 1,34,-1
 640 512 l 1,35,-1
 512 512 l 1,32,-1
EndSplineSet
Validated: 5
EndChar

StartChar: colon
Encoding: 58 58 68
Width: 960
Flags: W
LayerCount: 2
Fore
SplineSet
512 384 m 1,0,-1
 512 641 l 1,1,-1
 256 641 l 1,2,-1
 256 384 l 1,3,-1
 512 384 l 1,0,-1
512 2 m 1,4,-1
 512 256 l 1,5,-1
 256 256 l 9,6,-1
 256 2 l 25,7,-1
 512 2 l 1,4,-1
EndSplineSet
Validated: 9
EndChar

StartChar: underscore
Encoding: 95 95 69
Width: 1216
Flags: W
LayerCount: 2
Fore
SplineSet
128 128 m 17,0,-1
 128 0 l 1,1,-1
 896 0 l 1,2,-1
 896 128 l 9,3,-1
 128 128 l 17,0,-1
EndSplineSet
Validated: 9
EndChar

StartChar: period
Encoding: 46 46 70
Width: 960
Flags: WO
LayerCount: 2
Fore
SplineSet
512 2 m 1,0,-1
 512 256 l 1,1,-1
 256 256 l 9,2,-1
 256 2 l 25,3,-1
 512 2 l 1,0,-1
EndSplineSet
EndChar
